<?xml version="1.0" encoding="utf-8"?>
<!-- Generator: Adobe Illustrator 19.0.0, SVG Export Plug-In . SVG Version: 6.00 Build 0)  -->
<svg version="1.1" id="Layer_1" xmlns="http://www.w3.org/2000/svg" xmlns:xlink="http://www.w3.org/1999/xlink" x="0px" y="0px"
	 viewBox="0 0 104.3 69.1" style="enable-background:new 0 0 104.3 69.1;" xml:space="preserve">
<style type="text/css">
	.st0{fill:#F15B2A;}
</style>
<g id="XMLID_2_">
	<path id="XMLID_56_" class="st0" d="M39.7,30.2l-4.8,0.1c0.1,9.6,8,17.3,17.6,17.3c9.6,0,17.4-7.8,17.6-17.3l-4.8-0.1
		c-0.1,7-5.8,12.6-12.8,12.6C45.5,42.8,39.8,37.2,39.7,30.2C39.7,30.2,39.7,30.2,39.7,30.2z"/>
	<path id="XMLID_66_" class="st0" d="M39.6,24.8c4.4,0,8.1-3.6,8.1-8L43,16.7c0,1.8-1.5,3.3-3.4,3.3c-1.8,0-3.3-1.5-3.4-3.3
		l-4.8,0.1C31.6,21.2,35.2,24.8,39.6,24.8z"/>
	<path id="XMLID_67_" class="st0" d="M63.9,24.8c4.4,0,8.1-3.6,8.1-8l-4.8-0.1c0,1.8-1.5,3.3-3.4,3.3c-1.8,0-3.3-1.5-3.4-3.3
		l-4.8,0.1C55.9,21.2,59.5,24.8,63.9,24.8z"/>
	<path id="XMLID_68_" class="st0" d="M80.8,27.4c0-7,5.7-12.7,12.6-12.8l-0.1-4.8c-9.6,0.1-17.3,8-17.3,17.6c0,0.6,0,1.6,0,1.6
		c-0.2,12.9-11,23.3-24.1,23.3c-13.1,0-23.5-10.1-23.7-23.1v0c0.1,0,0-1.2,0-1.9c0-9.6-7.8-17.4-17.3-17.6l-0.1,4.8
		c7,0.1,12.6,5.8,12.6,12.8c0,7-5.7,12.7-12.6,12.8l0.1,4.8c5.7-0.1,10.8-2.9,13.9-7.2C26.3,42,28.7,45.8,32,49
		c5.4,5.2,12.5,8.1,20,8.1c12.7,0,23.5-8.2,27.4-19.5c3.2,4.4,8.2,7.2,14,7.3l0.1-4.8C86.5,40.1,80.8,34.3,80.8,27.4z"/>
</g>
</svg>
