<?xml version="1.0" encoding="utf-8"?>
<!-- Generator: Adobe Illustrator 19.0.0, SVG Export Plug-In . SVG Version: 6.00 Build 0)  -->
<svg version="1.1" id="Layer_1" xmlns="http://www.w3.org/2000/svg" xmlns:xlink="http://www.w3.org/1999/xlink" x="0px" y="0px"
	 viewBox="-662.3 729.5 204 42.5" style="enable-background:new -662.3 729.5 204 42.5;" xml:space="preserve">
<style type="text/css">
	.st0{fill:#231F20;}
	.st1{fill:none;}
</style>
<g id="Layer_2">
	<path class="st0" d="M-474.3,747.9c-3,0-5.6,0.3-7.4,1.6c-1.7,1.2-2.6,2.9-2.6,4.8c0,3.7,3.6,6.4,8,6.4h3.2c0.1,0,0.3,0,0.4-0.1
		l1-0.7v-0.1c0,0,0-0.1-0.1-0.1c-4.1-0.1-7.4-1.9-7.4-5c0-3.2,3-5.2,7.5-5.2h11.5c0.2,0,0.3-0.1,0.5-0.2l1.4-1.4H-474.3
		L-474.3,747.9z"/>
	<path class="st0" d="M-510,748.1l-6.8,6.8h2.8c0.2,0,0.3-0.1,0.5-0.2l5-5c0.2-0.2,0.5-0.2,0.6,0l10.8,10.8c0.1,0.1,0.3,0.2,0.5,0.2
		h5.8l-12.6-12.6c-0.1-0.1-0.3-0.2-0.5-0.2h-5.5C-509.7,747.9-509.9,748-510,748.1"/>
	<path class="st0" d="M-532.6,748l-9.5,7.2c-0.2,0.1-0.4,0.1-0.5,0l-9.6-7.2c-0.1-0.1-0.2-0.1-0.4-0.1h-6.9l15.1,11.3
		c0.2,0.1,0.4,0.1,0.5,0l11.4-8.6c0.1-0.1,0.3,0,0.3,0.2v9.9h5.1v-12.8h-5.2C-532.4,747.9-532.5,747.9-532.6,748"/>
	<rect x="-573.6" y="747.9" class="st0" width="5.1" height="12.8"/>
	<path class="st0" d="M-598.4,754c-0.2,0-0.3,0.3-0.2,0.4l6.1,6.1c0.1,0.1,0.3,0.2,0.5,0.2h5.8l-4.9-4.9c-0.1-0.1,0-0.3,0.1-0.3
		l2.1-0.2c3.6-0.4,5.2-1.8,5.2-3.9c0-2.4-2.3-3.5-6.8-3.5h-21.8l1.6,1.4c0.1,0.1,0.3,0.2,0.4,0.2h16.8c3.4,0,4.5,0.8,4.5,2.2
		c0,1.3-1.6,2.1-5,2.1C-598.1,753.9-598.4,754-598.4,754"/>
</g>
<g>
	<path class="st1" d="M-632.1,734.4c-4.3-1-8.8-1.5-13-1.5h-0.2c-4.2,0-8.7,0.5-13,1.5c-0.4,0.1-0.6,0.4-0.6,0.9
		c0.1,1.2,0.2,2.5,0.3,3.8h15c4.1,0,6.6,1.4,6.6,3.7c0,2.1-1.7,3.7-5,4l-1.5,0.1c-0.1,0-0.2,0.2-0.1,0.3l7.8,7.8
		c2.7-6.3,4.1-13.3,4.3-19.7C-631.5,734.9-631.7,734.5-632.1,734.4z"/>
	<path class="st1" d="M-650.7,745.9c-0.1-0.1-0.1-0.1-0.1-0.2c0-0.1,0.1-0.2,0.2-0.2h3.9c4.2,0,4.8-1.4,4.8-2.4s-0.5-2.4-4.8-2.4
		h-11.6h-1.6l1.8,1c1.5,9.8,5.6,20,12.7,25.8c0.2,0.2,0.5,0.2,0.8,0c2.6-2.2,4.8-4.9,6.6-7.9l1.7,0.6l-1.4-1.4L-650.7,745.9z"/>
	<path class="st0" d="M-628.3,731.7c-5.3-1.5-11-2.4-16.7-2.3c-5.6,0-11.4,0.9-16.7,2.3c-0.3,0.1-0.6,0.4-0.6,0.9
		c0,14.1,5.3,31.5,16.8,39.3c0.3,0.2,0.6,0.2,1,0c11.5-7.7,16.8-25.1,16.8-39.3C-627.8,732.3-628,731.8-628.3,731.7z M-638.1,759.6
		c-1.8,3-4,5.7-6.6,7.9c-0.2,0.2-0.5,0.2-0.8,0c-7-5.8-11.1-16-12.7-25.8l-1.8-1h1.6h11.6c4.2,0,4.8,1.4,4.8,2.4s-0.5,2.4-4.8,2.4
		h-3.9c-0.1,0-0.2,0.1-0.2,0.2c0,0.1,0,0.1,0.1,0.2l13,13l1.4,1.4L-638.1,759.6z M-635.8,755l-7.8-7.8c-0.1-0.1,0-0.3,0.1-0.3
		l1.5-0.1c3.2-0.3,5-1.9,5-4c0-2.3-2.5-3.7-6.6-3.7h-15c-0.1-1.3-0.2-2.6-0.3-3.8c0-0.4,0.2-0.8,0.6-0.9c4.3-1,8.8-1.5,13-1.5h0.2
		c4.2,0,8.7,0.5,13,1.5c0.4,0.1,0.6,0.4,0.6,0.9C-631.7,741.7-633.1,748.7-635.8,755z"/>
</g>
</svg>
