<?xml version="1.0" encoding="utf-8"?>
<!-- Generator: Adobe Illustrator 19.0.0, SVG Export Plug-In . SVG Version: 6.00 Build 0)  -->
<svg version="1.1" xmlns="http://www.w3.org/2000/svg" xmlns:xlink="http://www.w3.org/1999/xlink" x="0px" y="0px"
	 viewBox="-698 728 43.3 53.3" style="enable-background:new -698 728 43.3 53.3;" xml:space="preserve">
<style type="text/css">
	.st0{display:none;}
	.st1{display:inline;}
	.st2{display:inline;fill:#231F20;}
	.st3{fill:#231F20;}
</style>
<g id="Layer_1" class="st0">
	<g class="st1">
		<path d="M-699,744c0.3,1.1,1.3,2.3,2.6,2.6h4.1l0.2,0.1V757h2.5v-10.3l0.2-0.1h4.1c1.4-0.4,2.3-1.5,2.6-2.6
			C-682.7,744-699,744-699,744z M-621.2,757c1.3-0.5,2-1.5,2.2-2.6h-11.3v-10.5h-2.5v13h11.6V757z M-651.7,746.6h9
			c1.3-0.4,2.5-1.4,2.7-2.6h-14.2v7.7h11.6v2.7h-9.1c-1.4,0.4-2.6,1.4-3.2,2.6h14.9v-7.8h-11.7V746.6z M-613.6,749.2v7.8h2.6v-5.2
			h9.1v5.2h2.6v-7.8 M-673.8,746.6h9.7c1.3-0.3,2.4-1.5,2.6-2.6h-15C-676.1,745.2-675.1,746.3-673.8,746.6 M-673.8,751.8h9.7
			c1.3-0.3,2.4-1.5,2.6-2.6h-15C-676.1,750.3-675.1,751.5-673.8,751.8 M-673.8,757h9.7c1.3-0.3,2.4-1.5,2.6-2.6h-15
			C-676.1,755.6-675.1,756.8-673.8,757 M-611.3,746.6h9.7c1.3-0.3,2.4-1.5,2.6-2.6h-15C-613.7,745.2-612.7,746.4-611.3,746.6"/>
	</g>
</g>
<g id="Layer_2" class="st0">
	<path class="st2" d="M-561,744c-3,0-5.6,0.3-7.4,1.6c-1.7,1.2-2.6,2.9-2.6,4.8c0,3.7,3.6,6.4,8,6.4h3.2c0.1,0,0.3,0,0.4-0.1l1-0.7
		c0,0,0-0.1,0-0.1c0,0,0-0.1-0.1-0.1c-4.1-0.1-7.4-1.9-7.4-5c0-3.2,3-5.2,7.5-5.2h11.5c0.2,0,0.3-0.1,0.5-0.2l1.4-1.4H-561z"/>
	<path class="st2" d="M-596.7,744.2l-6.8,6.8h2.8c0.2,0,0.3-0.1,0.5-0.2l5-5c0.2-0.2,0.5-0.2,0.6,0l10.8,10.8
		c0.1,0.1,0.3,0.2,0.5,0.2h5.8l-12.6-12.6c-0.1-0.1-0.3-0.2-0.5-0.2h-5.5C-596.4,744-596.6,744.1-596.7,744.2"/>
	<path class="st2" d="M-619.3,744.1l-9.5,7.2c-0.2,0.1-0.4,0.1-0.5,0l-9.6-7.2c-0.1-0.1-0.2-0.1-0.4-0.1h-6.9l15.1,11.3
		c0.2,0.1,0.4,0.1,0.5,0l11.4-8.6c0.1-0.1,0.3,0,0.3,0.2v9.9h5.1V744h-5.2C-619.1,744-619.2,744-619.3,744.1"/>
	<rect x="-660.3" y="744" class="st2" width="5.1" height="12.8"/>
	<path class="st2" d="M-685.1,750.1c-0.2,0-0.3,0.3-0.2,0.4l6.1,6.1c0.1,0.1,0.3,0.2,0.5,0.2h5.8l-4.9-4.9c-0.1-0.1,0-0.3,0.1-0.3
		l2.1-0.2c3.6-0.4,5.2-1.8,5.2-3.9c0-2.4-2.3-3.5-6.8-3.5H-699l1.6,1.4c0.1,0.1,0.3,0.2,0.4,0.2h16.8c3.4,0,4.5,0.8,4.5,2.2
		c0,1.3-1.6,2.1-5,2.1C-684.8,750-685.1,750.1-685.1,750.1"/>
</g>
<g id="Layer_3">
	<path class="st3" d="M-655.5,731c-6.6-1.8-13.8-2.9-20.9-2.9c-7.1,0-14.3,1.1-20.9,2.9c-0.5,0.1-0.8,0.6-0.8,1
		c0,17.7,6.6,39.5,21.1,49.2c0.4,0.2,0.8,0.2,1.2,0c14.4-9.6,21.1-31.5,21.1-49.2C-654.7,731.5-655,731.1-655.5,731 M-667.7,765.9
		c-2.3,3.8-5,7.3-8.2,9.9c-0.3,0.2-0.6,0.2-0.9,0c-8.8-7.3-13.9-20.1-15.9-32.4l-2.2-1.2h2.1h14.5c5.3,0,6,1.7,6,3c0,1.2-0.7,3-6,3
		l-4.9,0c-0.2,0-0.3,0.2-0.3,0.3c0,0.1,0,0.2,0.1,0.2l16.3,16.3l1.7,1.7L-667.7,765.9z M-664.7,760l-9.7-9.7
		c-0.1-0.1-0.1-0.4,0.1-0.4l1.9-0.2c4-0.4,6.3-2.4,6.3-5c0-2.9-3.1-4.6-8.3-4.6h-18.8c-0.2-1.6-0.3-3.2-0.4-4.8c0-0.5,0.3-1,0.8-1.1
		c5.4-1.2,10.9-1.9,16.2-1.9h0.3c5.3,0,10.8,0.7,16.2,1.9c0.5,0.1,0.8,0.6,0.8,1.1C-659.6,743.4-661.4,752.2-664.7,760"/>
</g>
</svg>
